<svg width="68" height="66" viewBox="0 0 68 66" fill="none" xmlns="http://www.w3.org/2000/svg" xmlns:xlink="http://www.w3.org/1999/xlink">
<path d="M4.857,59.813C4.857,61.454 5.625,63.027 6.991,64.188C8.357,65.348 10.211,66 12.143,66L55.857,66C57.789,66 59.643,65.348 61.009,64.188C62.375,63.027 63.143,61.454 63.143,59.813L63.143,16.5L4.857,16.5L4.857,59.813ZM46.143,26.813C46.143,26.266 46.399,25.741 46.854,25.354C47.31,24.967 47.927,24.75 48.571,24.75C49.216,24.75 49.833,24.967 50.289,25.354C50.744,25.741 51,26.266 51,26.813L51,55.688C51,56.235 50.744,56.759 50.289,57.146C49.833,57.533 49.216,57.75 48.571,57.75C47.927,57.75 47.31,57.533 46.854,57.146C46.399,56.759 46.143,56.235 46.143,55.688L46.143,26.813ZM31.571,26.813C31.571,26.266 31.827,25.741 32.283,25.354C32.738,24.967 33.356,24.75 34,24.75C34.644,24.75 35.262,24.967 35.717,25.354C36.173,25.741 36.429,26.266 36.429,26.813L36.429,55.688C36.429,56.235 36.173,56.759 35.717,57.146C35.262,57.533 34.644,57.75 34,57.75C33.356,57.75 32.738,57.533 32.283,57.146C31.827,56.759 31.571,56.235 31.571,55.688L31.571,26.813ZM17,26.813C17,26.266 17.256,25.741 17.711,25.354C18.167,24.967 18.784,24.75 19.429,24.75C20.073,24.75 20.69,24.967 21.146,25.354C21.601,25.741 21.857,26.266 21.857,26.813L21.857,55.688C21.857,56.235 21.601,56.759 21.146,57.146C20.69,57.533 20.073,57.75 19.429,57.75C18.784,57.75 18.167,57.533 17.711,57.146C17.256,56.759 17,56.235 17,55.688L17,26.813ZM65.571,4.125L47.357,4.125L45.93,1.714C45.628,1.199 45.163,0.766 44.586,0.463C44.009,0.16 43.345,0 42.667,0L25.318,0C24.641,-0.002 23.978,0.157 23.404,0.461C22.829,0.764 22.367,1.198 22.07,1.714L20.643,4.125L2.429,4.125C1.784,4.125 1.167,4.342 0.711,4.729C0.256,5.116 0,5.641 0,6.188L0,10.313C0,10.86 0.256,11.384 0.711,11.771C1.167,12.158 1.784,12.375 2.429,12.375L65.571,12.375C66.216,12.375 66.833,12.158 67.289,11.771C67.744,11.384 68,10.86 68,10.313L68,6.188C68,5.641 67.744,5.116 67.289,4.729C66.833,4.342 66.216,4.125 65.571,4.125Z" fill="#000000"/>
</svg>
